<?xml version="1.0" encoding="utf-8"?>
<!-- Generator: Adobe Illustrator 20.1.0, SVG Export Plug-In . SVG Version: 6.00 Build 0)  -->
<svg version="1.1" id="Layer_1" xmlns="http://www.w3.org/2000/svg" xmlns:xlink="http://www.w3.org/1999/xlink" x="0px" y="0px"
	 viewBox="0 0 60 60" style="enable-background:new 0 0 60 60;" xml:space="preserve">
<style type="text/css">
	.st0{fill:#D22856;}
</style>
<path class="st0" d="M30.2,5H30L10.3,7.1v36.2L30,55l19.7-11.7V7.1C49.7,7.1,30.2,5,30.2,5z M47.2,41.8L30,52L12.8,41.8V27
	l17.1,10.2V39l-11.7-7v1.8L30,40.9v1.9l-11.8-7v1.8l11.8,7l11.9-7.1v-7.6l5.3-3.2V41.8z M47.1,24.8l-4.7,2.8l-2.2,1.3l-10.3-6.1v1.8
	l8.8,5.3h-0.1L38.4,30l-1.3,0.7l-7.3-4.3v1.8l5.8,3.4l-1.4,0.9l-4.3-2.6v1.8l2.9,1.7l-2.9,1.7L12.9,25l17-10.2
	C29.9,14.8,47.1,24.8,47.1,24.8z M47.2,23L29.9,12.8L12.8,23V9.4L30,7.6l17.2,1.8C47.2,9.4,47.2,23,47.2,23z"/>
</svg>
