<svg xmlns="http://www.w3.org/2000/svg"><symbol id="icon-facebook" viewBox="0 0 8.673 18.944"><path d="M6.275 3.357h2.398V0H5.795C2.656.181 1.54 2.387 1.948 6.115H0v3.517h1.958v9.312h3.837V9.632h2.857V6.115H5.786c-.021-1.045-.036-2.406.489-2.758z"/></symbol><symbol id="icon-review-arrow-left" viewBox="0 0 21.706 41.719"><path d="M2.045 20.859L21.458 1.446A.847.847 0 0 0 20.261.248L.248 20.261a.846.846 0 0 0 0 1.197l20.013 20.013a.843.843 0 0 0 1.198 0 .847.847 0 0 0 0-1.198L2.045 20.859z"/></symbol><symbol id="icon-review-arrow-right" viewBox="0 0 21.706 41.719"><path d="M19.661 20.859L.248 1.446A.847.847 0 0 1 1.445.248L21.458 20.26c.33.33.33.867 0 1.197L1.445 41.471a.843.843 0 0 1-1.198 0 .847.847 0 0 1 0-1.198l19.414-19.414z"/></symbol><symbol id="icon-twitter" viewBox="0 0 17.5 14.663"><path fill-rule="evenodd" clip-rule="evenodd" d="M11.283.153c1.736-.485 3.074.263 3.685 1.151.694-.226 1.372-.47 2.072-.691-.004.841-.538 1.478-.883 1.727.704.166 1.343-.48 1.343-.48-.175.976-1.035 1.746-1.611 1.977-.239 6.592-3.272 10.956-10.382 10.823h-.46c-.422 0-4.29-.45-5.047-1.843 2.341.192 4.011-.412 4.835-1.15-.989-.293-2.761-.464-3.07-2.881.362.105.583.223 1.228.117C1.757 8.067.385 7.366.461 5.218c.294.32 1.1.523 1.381.461C1.117 5.444-.188 2.398.921.843 2.794 2.654 4.769 4.364 8.29 4.528 8.506 2.288 9.461.787 11.283.153z"/></symbol><symbol id="icon-youtube" viewBox="0 0 14.64 13.96"><path d="M1.775 13.78C.799 14.257 0 13.758 0 12.671V1.29C0 .202.799-.295 1.775.181l12.133 5.932c.975.478.975 1.258 0 1.736L1.775 13.78z"/></symbol><symbol id="logo-htmlacademy" viewBox="0 0 26.943 34.09"><path d="M13.62.017L13.472 0 0 1.412v24.661l13.472 8.017 13.43-7.99.042-.026V1.412L13.62.017zm11.399 12.11L13.495 5.334l-.001-.104-.087.05-.088-.056v.109L1.925 12.118V3.147l11.547-1.212 11.547 1.212v8.98zm-11.614-5.34L24.923 13.5l-4.479 2.64-7.093-4.221-.013 1.415 5.904 3.513-.86.507-5.031-2.992-.013 1.415 3.827 2.275-.782.523-3.032-1.787-.013 1.413 1.852 1.091-1.8 1.081-11.356-6.751 11.371-6.835zm-11.48 8.34l11.411 6.791.015 1.044-7.941-4.728-.015 1.416 7.979 4.796.017 1.076-7.972-4.741-.013 1.415 8.021 4.821.045.026 8.143-4.872v-1.268l-.011-.148v-3.761l3.415-2.036v10.02L13.472 31.85 1.925 24.979v-9.852z"/></symbol></svg>